# xmcd CD database file
#
# Track frame offsets:
#	150
#	26601
#	60958
#	90110
#	121040
#	151233
#	195765
#	218953
#	250188
#
# Disc length: 3589 seconds
#
# Revision: 0
# Processed by: cddbd v1.5.1PL0 Copyright (c) Steve Scherf et al.
# Submitted via: CDex 1.60beta1
#
DISCID=5d0e0309
DTITLE=Scott Davis - Almost Time
DYEAR=2001
DGENRE=Jazz
TTITLE0=Almost Time
TTITLE1=Big Easy Window
TTITLE2=Wish We Had Another Hour
TTITLE3=Good Morning
TTITLE4=Hobbies
TTITLE5=Rainy Weekend
TTITLE6=Amarcord Theme
TTITLE7=Mouse in the Dairy
TTITLE8=Fred and George
EXTD=YEAR: 2001
EXTT0=
EXTT1=
EXTT2=
EXTT3=
EXTT4=
EXTT5=
EXTT6=
EXTT7=
EXTT8=
PLAYORDER=
